<?xml version="1.0" encoding="UTF-8"?>
<svg id="Layer_1_copy" xmlns="http://www.w3.org/2000/svg" version="1.1" viewBox="0 0 657 524">
  <!-- Generator: Adobe Illustrator 29.8.1, SVG Export Plug-In . SVG Version: 2.1.1 Build 2)  -->
  <defs>
    <style>
      .st0 {
        fill: #0b0f11;
      }

      .st1 {
        fill: #047bf5;
      }
    </style>
  </defs>
  <path class="st0" d="M84.66,462.95l96.49-228.01,51.05-1.07,98.46,229.07h-42.5l-23.96-53.07-115.43.19-22.61,52.88h-41.5ZM249.66,373.95l-42.99-100-41.01,100h84Z"/>
  <path class="st0" d="M181.66,6.95v35h-98.5c-5.97,0-21.55,10.51-25.9,15.1-22.2,23.47-20.17,76.52,8.7,94.09,3.65,2.22,14.29,6.81,18.19,6.81h67.5l-1-46h-52v-33h87.5c.11,0,1.5,1.39,1.5,1.5v108c0,.36-1.02,1.62-1.17,2.34-30.72.03-61.61.53-92.37.11-62.66-.85-96.88-49.1-87.18-110.18C12.15,47.89,45.69,6.95,81.16,6.95h100.5Z"/>
  <path class="st0" d="M570.16,6.95c91.84,8.38,112.2,138.29,31.18,176.18-6.25,2.92-24.75,8.82-31.18,8.82h-99.5V6.95h99.5ZM506.66,157.95h58.5c6.87,0,21.58-6.56,27.43-10.57,30.25-20.75,30.67-71.77,2.55-94.41-6.76-5.44-22.4-13.02-30.98-13.02h-57.5v118Z"/>
  <path class="st0" d="M321.16,6.95c58.73,5.64,78.82,71.11,33.83,107.83l-14.32,8.65,41.99,67.52h-39.5c-14.06-20.96-27.89-42.14-40.5-64h-51v64h-35V6.95h104.5ZM251.66,93.95h66.5c.74,0,9.94-3.16,11.2-3.8,16.87-8.5,19.15-39.01.65-47.05-1.91-.83-8.28-3.15-9.85-3.15h-68.5v54Z"/>
  <path class="st1" d="M319.66,365.95l113.48-159,1.08,3.03-29.57,115.96h73s-.16,2.33-.16,2.33l-121.35,183.66c-2.49.43-1.44-1.8-1.23-3.24,2.95-20.78,12.67-49.74,18.04-70.96,6.04-23.86,13.08-47.7,17.71-71.79h-71Z"/>
  <rect class="st0" x="509.66" y="233.95" width="41" height="229"/>
  <rect class="st0" x="405.66" y="6.95" width="35" height="184"/>
</svg>