<?xml version="1.0" encoding="UTF-8"?>
<svg xmlns="http://www.w3.org/2000/svg" id="Layer_2" data-name="Layer 2" viewBox="0 0 283.46 181.42">
  <defs>
    <style>
      .cls-1 {
        fill: #fff;
        stroke-width: 0px;
      }
    </style>
  </defs>
  <g id="Layer_1-2" data-name="Layer 1">
    <g>
      <g>
        <path class="cls-1" d="m1.24,153.61c0-.11.06-.17.17-.17h7.35c.11,0,.17.06.17.17v1.48c0,.11-.06.17-.17.17H3.37c-.07,0-.1.03-.1.1v2.86c0,.07.03.1.1.1h4.54c.12,0,.17.06.17.17v1.48c0,.12-.06.17-.17.17H3.37c-.07,0-.1.03-.1.1v2.96c0,.07.03.1.1.1h5.38c.11,0,.17.06.17.17v1.48c0,.11-.06.17-.17.17H1.41c-.12,0-.17-.06-.17-.17v-11.37Z"></path>
        <path class="cls-1" d="m10.72,153.61c0-.11.06-.17.17-.17h1.59c.13,0,.22.06.29.17l4.78,8.08h.07v-8.08c0-.11.06-.17.17-.17h1.5c.11,0,.17.06.17.17v11.37c0,.11-.06.17-.17.17h-1.57c-.13,0-.22-.06-.29-.17l-4.8-8.06h-.07v8.06c0,.11-.06.17-.17.17h-1.5c-.12,0-.17-.06-.17-.17v-11.37Z"></path>
        <path class="cls-1" d="m24.32,165.16c-.11,0-.17-.06-.17-.17v-9.61c0-.07-.04-.1-.1-.1h-3.07c-.11,0-.17-.06-.17-.17v-1.48c0-.11.06-.17.17-.17h8.39c.11,0,.17.06.17.17v1.48c0,.11-.06.17-.17.17h-3.07c-.07,0-.1.03-.1.1v9.61c0,.11-.06.17-.17.17h-1.69Z"></path>
        <path class="cls-1" d="m30.86,153.61c0-.11.06-.17.17-.17h7.35c.11,0,.17.06.17.17v1.48c0,.11-.06.17-.17.17h-5.38c-.07,0-.1.03-.1.1v2.86c0,.07.03.1.1.1h4.54c.12,0,.17.06.17.17v1.48c0,.12-.06.17-.17.17h-4.54c-.07,0-.1.03-.1.1v2.96c0,.07.03.1.1.1h5.38c.11,0,.17.06.17.17v1.48c0,.11-.06.17-.17.17h-7.35c-.12,0-.17-.06-.17-.17v-11.37Z"></path>
        <path class="cls-1" d="m47.01,165.16c-.13,0-.21-.06-.26-.17l-2.24-4.57h-2.02c-.07,0-.1.03-.1.1v4.46c0,.11-.06.17-.17.17h-1.69c-.12,0-.17-.06-.17-.17v-11.37c0-.11.06-.17.17-.17h4.54c.54,0,1.04.09,1.49.26.45.17.85.41,1.18.72s.59.67.78,1.1c.19.43.28.91.28,1.42,0,.77-.2,1.44-.6,2-.4.56-.94.97-1.62,1.22l2.47,4.77c.03.06.04.11,0,.15-.03.05-.07.07-.13.07h-1.92Zm-2.02-6.56c.54,0,.98-.15,1.3-.45.33-.3.49-.7.49-1.21s-.16-.92-.49-1.22c-.33-.3-.76-.45-1.3-.45h-2.5c-.07,0-.1.03-.1.1v3.12c0,.07.03.1.1.1h2.5Z"></path>
        <path class="cls-1" d="m50.86,165.16c-.12,0-.17-.06-.17-.17v-11.37c0-.11.06-.17.17-.17h4.4c.56,0,1.08.09,1.56.27.48.18.88.43,1.23.74.34.32.6.7.79,1.15.19.45.28.94.28,1.48s-.09,1.05-.28,1.5c-.19.45-.45.83-.79,1.15-.34.32-.75.56-1.23.74-.48.18-1,.27-1.56.27h-2.43c-.07,0-.1.03-.1.1v4.15c0,.11-.06.17-.17.17h-1.69Zm4.28-6.27c.61,0,1.09-.16,1.43-.49s.52-.77.52-1.32-.17-.98-.52-1.31c-.34-.33-.82-.5-1.43-.5h-2.31c-.07,0-.1.03-.1.1v3.41c0,.07.03.1.1.1h2.31Z"></path>
        <path class="cls-1" d="m67.31,165.16c-.13,0-.21-.06-.26-.17l-2.24-4.57h-2.02c-.07,0-.1.03-.1.1v4.46c0,.11-.06.17-.17.17h-1.69c-.12,0-.17-.06-.17-.17v-11.37c0-.11.06-.17.17-.17h4.54c.54,0,1.04.09,1.49.26.45.17.85.41,1.18.72s.59.67.78,1.1c.19.43.28.91.28,1.42,0,.77-.2,1.44-.6,2-.4.56-.94.97-1.62,1.22l2.47,4.77c.03.06.04.11,0,.15-.03.05-.07.07-.13.07h-1.92Zm-2.02-6.56c.54,0,.98-.15,1.3-.45.33-.3.49-.7.49-1.21s-.16-.92-.49-1.22c-.33-.3-.76-.45-1.3-.45h-2.5c-.07,0-.1.03-.1.1v3.12c0,.07.03.1.1.1h2.5Z"></path>
        <path class="cls-1" d="m70.99,153.61c0-.11.06-.17.17-.17h1.69c.12,0,.17.06.17.17v11.37c0,.11-.06.17-.17.17h-1.69c-.12,0-.17-.06-.17-.17v-11.37Z"></path>
        <path class="cls-1" d="m78.96,165.35c-.44,0-.86-.04-1.28-.12-.41-.08-.81-.19-1.18-.33-.37-.14-.72-.3-1.04-.49-.32-.19-.59-.39-.82-.61-.09-.09-.1-.18-.04-.26l1.07-1.24c.08-.09.16-.1.24-.02.18.15.39.3.63.45s.49.28.76.4.55.21.85.28c.3.07.62.11.95.11.7,0,1.25-.16,1.63-.47.38-.32.58-.72.58-1.21,0-.42-.16-.77-.47-1.04s-.87-.46-1.67-.58l-.62-.09c-1.14-.16-2.01-.51-2.62-1.06-.61-.55-.92-1.31-.92-2.28,0-.53.09-1.01.28-1.45.18-.44.45-.81.79-1.12.35-.31.76-.55,1.25-.71s1.04-.25,1.65-.25c.73,0,1.43.11,2.1.32.66.21,1.23.5,1.7.85.08.07.09.15.03.24l-.83,1.27c-.07.09-.15.11-.24.05-.48-.31-.95-.54-1.4-.69s-.92-.22-1.42-.22c-.6,0-1.06.15-1.37.44-.32.29-.47.67-.47,1.13,0,.4.16.74.48,1.01s.88.46,1.67.58l.62.09c1.14.16,2.01.51,2.6,1.06.6.55.9,1.32.9,2.33,0,.52-.09,1-.28,1.45-.18.45-.46.83-.84,1.15-.37.32-.84.57-1.39.76-.55.18-1.19.28-1.91.28Z"></path>
        <path class="cls-1" d="m85.05,153.61c0-.11.06-.17.17-.17h7.35c.11,0,.17.06.17.17v1.48c0,.11-.06.17-.17.17h-5.38c-.07,0-.1.03-.1.1v2.86c0,.07.03.1.1.1h4.54c.12,0,.17.06.17.17v1.48c0,.12-.06.17-.17.17h-4.54c-.07,0-.1.03-.1.1v2.96c0,.07.03.1.1.1h5.38c.11,0,.17.06.17.17v1.48c0,.11-.06.17-.17.17h-7.35c-.12,0-.17-.06-.17-.17v-11.37Z"></path>
        <path class="cls-1" d="m98.23,165.35c-.44,0-.86-.04-1.28-.12-.41-.08-.81-.19-1.18-.33-.37-.14-.72-.3-1.04-.49-.32-.19-.59-.39-.82-.61-.09-.09-.1-.18-.04-.26l1.07-1.24c.08-.09.16-.1.24-.02.18.15.39.3.63.45s.49.28.76.4.55.21.85.28c.3.07.62.11.95.11.7,0,1.25-.16,1.63-.47.38-.32.58-.72.58-1.21,0-.42-.16-.77-.47-1.04s-.87-.46-1.67-.58l-.62-.09c-1.14-.16-2.01-.51-2.62-1.06-.61-.55-.92-1.31-.92-2.28,0-.53.09-1.01.28-1.45.18-.44.45-.81.79-1.12.35-.31.76-.55,1.25-.71s1.04-.25,1.65-.25c.73,0,1.43.11,2.1.32.66.21,1.23.5,1.7.85.08.07.09.15.03.24l-.83,1.27c-.07.09-.15.11-.24.05-.48-.31-.95-.54-1.4-.69s-.92-.22-1.42-.22c-.6,0-1.06.15-1.37.44-.32.29-.47.67-.47,1.13,0,.4.16.74.48,1.01s.88.46,1.67.58l.62.09c1.14.16,2.01.51,2.6,1.06.6.55.9,1.32.9,2.33,0,.52-.09,1-.28,1.45-.18.45-.46.83-.84,1.15-.37.32-.84.57-1.39.76-.55.18-1.19.28-1.91.28Z"></path>
        <path class="cls-1" d="m111.74,165.35c-.44,0-.86-.04-1.28-.12-.41-.08-.81-.19-1.18-.33-.37-.14-.72-.3-1.04-.49-.32-.19-.59-.39-.82-.61-.09-.09-.1-.18-.04-.26l1.07-1.24c.08-.09.16-.1.24-.02.18.15.39.3.63.45s.49.28.76.4.55.21.85.28c.3.07.62.11.95.11.7,0,1.25-.16,1.63-.47.38-.32.58-.72.58-1.21,0-.42-.16-.77-.47-1.04s-.87-.46-1.67-.58l-.62-.09c-1.14-.16-2.01-.51-2.62-1.06-.61-.55-.92-1.31-.92-2.28,0-.53.09-1.01.28-1.45.18-.44.45-.81.79-1.12.35-.31.76-.55,1.25-.71s1.04-.25,1.65-.25c.73,0,1.43.11,2.1.32.66.21,1.23.5,1.7.85.08.07.09.15.03.24l-.83,1.27c-.07.09-.15.11-.24.05-.48-.31-.95-.54-1.4-.69s-.92-.22-1.42-.22c-.6,0-1.06.15-1.37.44-.32.29-.47.67-.47,1.13,0,.4.16.74.48,1.01s.88.46,1.67.58l.62.09c1.14.16,2.01.51,2.6,1.06.6.55.9,1.32.9,2.33,0,.52-.09,1-.28,1.45-.18.45-.46.83-.84,1.15-.37.32-.84.57-1.39.76-.55.18-1.19.28-1.91.28Z"></path>
        <path class="cls-1" d="m117.83,153.61c0-.11.06-.17.17-.17h1.69c.12,0,.17.06.17.17v4.62c0,.07.03.1.1.1h4.47c.07,0,.1-.03.1-.1v-4.62c0-.11.06-.17.17-.17h1.69c.11,0,.17.06.17.17v11.37c0,.11-.06.17-.17.17h-1.69c-.12,0-.17-.06-.17-.17v-4.72c0-.07-.03-.1-.1-.1h-4.47c-.07,0-.1.03-.1.1v4.72c0,.11-.06.17-.17.17h-1.69c-.12,0-.17-.06-.17-.17v-11.37Z"></path>
        <path class="cls-1" d="m131.86,153.61c.03-.11.11-.17.22-.17h1.59c.11,0,.19.06.22.17l3.97,11.37c.04.11,0,.17-.12.17h-1.69c-.11,0-.19-.06-.22-.17l-.78-2.27h-4.42l-.78,2.27c-.03.11-.11.17-.22.17h-1.67c-.12,0-.16-.06-.12-.17l4.02-11.37Zm2.57,7.29l-1.55-4.55h-.05l-1.57,4.55h3.17Z"></path>
        <path class="cls-1" d="m139.29,165.16c-.12,0-.17-.06-.17-.17v-11.37c0-.11.06-.17.17-.17h4.4c.56,0,1.08.09,1.56.27.48.18.88.43,1.23.74.34.32.6.7.79,1.15.19.45.28.94.28,1.48s-.09,1.05-.28,1.5c-.19.45-.45.83-.79,1.15-.34.32-.75.56-1.23.74-.48.18-1,.27-1.56.27h-2.43c-.07,0-.1.03-.1.1v4.15c0,.11-.06.17-.17.17h-1.69Zm4.28-6.27c.61,0,1.09-.16,1.43-.49s.52-.77.52-1.32-.17-.98-.52-1.31c-.34-.33-.82-.5-1.43-.5h-2.31c-.07,0-.1.03-.1.1v3.41c0,.07.03.1.1.1h2.31Z"></path>
        <path class="cls-1" d="m149.09,153.61c0-.11.06-.17.17-.17h1.69c.12,0,.17.06.17.17v11.37c0,.11-.06.17-.17.17h-1.69c-.12,0-.17-.06-.17-.17v-11.37Z"></path>
        <path class="cls-1" d="m153.37,153.61c0-.11.06-.17.17-.17h1.59c.13,0,.22.06.29.17l4.78,8.08h.07v-8.08c0-.11.06-.17.17-.17h1.5c.11,0,.17.06.17.17v11.37c0,.11-.06.17-.17.17h-1.57c-.13,0-.22-.06-.29-.17l-4.8-8.06h-.07v8.06c0,.11-.06.17-.17.17h-1.5c-.12,0-.17-.06-.17-.17v-11.37Z"></path>
        <path class="cls-1" d="m164.33,162.52c-.06-.18-.11-.37-.15-.55-.04-.18-.07-.4-.09-.64s-.04-.53-.05-.85c-.01-.33-.02-.72-.02-1.18s0-.85.02-1.18c.01-.33.03-.61.05-.85s.05-.45.09-.64c.04-.18.09-.37.15-.55.3-.93.81-1.63,1.54-2.11.72-.48,1.61-.71,2.66-.71.55,0,1.05.07,1.5.21s.85.32,1.19.54c.34.22.63.49.86.79s.41.62.53.94c.05.1.02.18-.07.24l-1.45.64c-.1.03-.18,0-.22-.09-.27-.47-.58-.83-.95-1.08-.37-.25-.84-.37-1.42-.37s-1.08.13-1.43.4c-.36.27-.62.65-.78,1.13-.04.1-.07.22-.1.36s-.05.31-.07.52-.03.46-.03.75c0,.29,0,.65,0,1.06s0,.77,0,1.06c0,.29.02.54.03.75.02.21.04.38.07.52s.06.26.1.36c.16.48.42.86.78,1.13.36.27.83.4,1.43.4.52,0,.98-.12,1.38-.37.4-.25.68-.61.84-1.09.06-.18.1-.4.14-.65.03-.25.05-.54.05-.87,0-.07-.03-.1-.1-.1h-1.93c-.12,0-.17-.06-.17-.17v-1.38c0-.11.06-.17.17-.17h3.88c.11,0,.17.06.17.17v1.02c0,.48-.02.96-.07,1.42s-.11.85-.21,1.15c-.29.92-.8,1.63-1.53,2.13-.73.5-1.6.75-2.61.75s-1.93-.24-2.66-.71-1.24-1.18-1.54-2.11Z"></path>
        <path class="cls-1" d="m182.81,163.52c.68,0,1.23-.22,1.66-.65s.64-1.05.64-1.87v-7.39c0-.11.06-.17.17-.17h1.69c.11,0,.17.06.17.17v7.42c0,.68-.11,1.28-.33,1.82s-.52.99-.9,1.35c-.39.37-.84.65-1.37.84-.53.2-1.1.29-1.72.29s-1.19-.1-1.72-.29c-.52-.19-.98-.48-1.36-.84-.39-.37-.69-.82-.91-1.35s-.33-1.14-.33-1.82v-7.42c0-.11.06-.17.17-.17h1.69c.11,0,.17.06.17.17v7.39c0,.82.21,1.44.64,1.87.43.43.97.65,1.64.65Z"></path>
        <path class="cls-1" d="m192.02,153.61c.03-.11.11-.17.22-.17h1.59c.11,0,.19.06.22.17l3.97,11.37c.04.11,0,.17-.12.17h-1.69c-.11,0-.19-.06-.22-.17l-.78-2.27h-4.42l-.78,2.27c-.03.11-.11.17-.22.17h-1.67c-.12,0-.16-.06-.12-.17l4.02-11.37Zm2.57,7.29l-1.55-4.55h-.05l-1.57,4.55h3.17Z"></path>
        <path class="cls-1" d="m199.28,153.61c0-.11.06-.17.17-.17h7.35c.11,0,.17.06.17.17v1.48c0,.11-.06.17-.17.17h-5.38c-.07,0-.1.03-.1.1v2.86c0,.07.03.1.1.1h4.54c.12,0,.17.06.17.17v1.48c0,.12-.06.17-.17.17h-4.54c-.07,0-.1.03-.1.1v2.96c0,.07.03.1.1.1h5.38c.11,0,.17.06.17.17v1.48c0,.11-.06.17-.17.17h-7.35c-.12,0-.17-.06-.17-.17v-11.37Z"></path>
        <path class="cls-1" d="m208.53,156.58v-2.96c0-.11.06-.17.17-.17h1.05c.11,0,.17.06.17.17v2.96c0,.11-.06.17-.17.17h-1.05c-.12,0-.17-.06-.17-.17Z"></path>
        <path class="cls-1" d="m215.62,165.35c-.44,0-.86-.04-1.28-.12-.41-.08-.81-.19-1.18-.33-.37-.14-.72-.3-1.04-.49-.32-.19-.59-.39-.82-.61-.09-.09-.1-.18-.04-.26l1.07-1.24c.08-.09.16-.1.24-.02.18.15.39.3.63.45s.49.28.76.4.55.21.85.28c.3.07.62.11.95.11.7,0,1.25-.16,1.63-.47.38-.32.58-.72.58-1.21,0-.42-.16-.77-.47-1.04s-.87-.46-1.67-.58l-.62-.09c-1.14-.16-2.01-.51-2.62-1.06-.61-.55-.92-1.31-.92-2.28,0-.53.09-1.01.28-1.45.18-.44.45-.81.79-1.12.35-.31.76-.55,1.25-.71s1.04-.25,1.65-.25c.73,0,1.43.11,2.1.32.66.21,1.23.5,1.7.85.08.07.09.15.03.24l-.83,1.27c-.07.09-.15.11-.24.05-.48-.31-.95-.54-1.4-.69s-.92-.22-1.42-.22c-.6,0-1.06.15-1.37.44-.32.29-.47.67-.47,1.13,0,.4.16.74.48,1.01s.88.46,1.67.58l.62.09c1.14.16,2.01.51,2.6,1.06.6.55.9,1.32.9,2.33,0,.52-.09,1-.28,1.45-.18.45-.46.83-.84,1.15-.37.32-.84.57-1.39.76-.55.18-1.19.28-1.91.28Z"></path>
        <path class="cls-1" d="m225.44,153.61c0-.11.06-.17.17-.17h7.35c.11,0,.17.06.17.17v1.48c0,.11-.06.17-.17.17h-5.38c-.07,0-.1.03-.1.1v2.98c0,.07.03.1.1.1h4.54c.12,0,.17.06.17.17v1.48c0,.11-.06.17-.17.17h-4.54c-.07,0-.1.03-.1.1v4.6c0,.11-.06.17-.17.17h-1.69c-.12,0-.17-.06-.17-.17v-11.37Z"></path>
        <path class="cls-1" d="m239.02,163.52c.68,0,1.23-.22,1.66-.65s.64-1.05.64-1.87v-7.39c0-.11.06-.17.17-.17h1.69c.11,0,.17.06.17.17v7.42c0,.68-.11,1.28-.33,1.82s-.52.99-.9,1.35c-.39.37-.84.65-1.37.84-.53.2-1.1.29-1.72.29s-1.19-.1-1.72-.29c-.52-.19-.98-.48-1.36-.84-.39-.37-.69-.82-.91-1.35s-.33-1.14-.33-1.82v-7.42c0-.11.06-.17.17-.17h1.69c.11,0,.17.06.17.17v7.39c0,.82.21,1.44.64,1.87.43.43.97.65,1.64.65Z"></path>
        <path class="cls-1" d="m248.12,165.16c-.11,0-.17-.06-.17-.17v-9.61c0-.07-.04-.1-.1-.1h-3.07c-.11,0-.17-.06-.17-.17v-1.48c0-.11.06-.17.17-.17h8.39c.11,0,.17.06.17.17v1.48c0,.11-.06.17-.17.17h-3.07c-.07,0-.1.03-.1.1v9.61c0,.11-.06.17-.17.17h-1.69Z"></path>
        <path class="cls-1" d="m258.91,163.52c.68,0,1.23-.22,1.66-.65s.64-1.05.64-1.87v-7.39c0-.11.06-.17.17-.17h1.69c.11,0,.17.06.17.17v7.42c0,.68-.11,1.28-.33,1.82s-.52.99-.9,1.35c-.39.37-.84.65-1.37.84-.53.2-1.1.29-1.72.29s-1.19-.1-1.72-.29c-.52-.19-.98-.48-1.36-.84-.39-.37-.69-.82-.91-1.35s-.33-1.14-.33-1.82v-7.42c0-.11.06-.17.17-.17h1.69c.11,0,.17.06.17.17v7.39c0,.82.21,1.44.64,1.87.43.43.97.65,1.64.65Z"></path>
        <path class="cls-1" d="m272.07,165.16c-.13,0-.21-.06-.26-.17l-2.24-4.57h-2.02c-.07,0-.1.03-.1.1v4.46c0,.11-.06.17-.17.17h-1.69c-.12,0-.17-.06-.17-.17v-11.37c0-.11.06-.17.17-.17h4.54c.54,0,1.04.09,1.49.26.45.17.85.41,1.18.72s.59.67.78,1.1c.19.43.28.91.28,1.42,0,.77-.2,1.44-.6,2-.4.56-.94.97-1.62,1.22l2.47,4.77c.03.06.04.11,0,.15-.03.05-.07.07-.13.07h-1.92Zm-2.02-6.56c.54,0,.98-.15,1.3-.45.33-.3.49-.7.49-1.21s-.16-.92-.49-1.22c-.33-.3-.76-.45-1.3-.45h-2.5c-.07,0-.1.03-.1.1v3.12c0,.07.03.1.1.1h2.5Z"></path>
        <path class="cls-1" d="m275.75,153.61c0-.11.06-.17.17-.17h7.35c.11,0,.17.06.17.17v1.48c0,.11-.06.17-.17.17h-5.38c-.07,0-.1.03-.1.1v2.86c0,.07.03.1.1.1h4.54c.12,0,.17.06.17.17v1.48c0,.12-.06.17-.17.17h-4.54c-.07,0-.1.03-.1.1v2.96c0,.07.03.1.1.1h5.38c.11,0,.17.06.17.17v1.48c0,.11-.06.17-.17.17h-7.35c-.12,0-.17-.06-.17-.17v-11.37Z"></path>
      </g>
      <g>
        <path class="cls-1" d="m9.08,128.75h1.7c.11,0,.2.09.2.2v1.74c0,.11-.09.2-.2.2h-1.7c-.11,0-.2-.09-.2-.2v-1.74c0-.11.09-.2.2-.2Z"></path>
        <path class="cls-1" d="m6.45,128.75h1.7c.11,0,.2.09.2.2v1.74c0,.11-.09.2-.2.2h-1.7c-.11,0-.2-.09-.2-.2v-1.74c0-.11.09-.2.2-.2Z"></path>
        <path class="cls-1" d="m15.78,131.73h-1.86c-.14,0-.2.07-.2.2v5.12c0,.4-.08.68-.23.84-.15.15-.41.23-.76.23H4.34c-.34,0-.58-.08-.74-.23-.16-.15-.23-.43-.23-.84v-3.82c0-.13-.07-.2-.2-.2h-1.86c-.13,0-.2.07-.2.2v4.35c0,.88.18,1.52.55,1.93.36.41.97.62,1.82.62h10.11c.88,0,1.5-.21,1.86-.62s.55-1.05.55-1.93v-5.64c0-.13-.07-.2-.2-.2Z"></path>
        <path class="cls-1" d="m18.54,126.37h1.88c.11,0,.2.09.2.2v13.35c0,.11-.09.2-.2.2h-1.88c-.11,0-.2-.09-.2-.2v-13.35c0-.11.09-.2.2-.2Z"></path>
        <path class="cls-1" d="m26.29,131.73h-1.88c-.13,0-.2.07-.2.2v8.53c0,.58-.12,1.01-.37,1.29-.25.28-.66.42-1.23.42h-.44c-.14,0-.2.07-.2.2v1.62c0,.13.07.2.2.2h.75c2.39,0,3.58-1.23,3.58-3.7v-8.57c0-.13-.07-.2-.2-.2Z"></path>
        <path class="cls-1" d="m59.21,132.37c-.37-.35-.81-.61-1.33-.77-.51-.16-1.07-.24-1.66-.24s-1.14.08-1.64.23c-.5.16-.93.4-1.31.75-.37.34-.66.79-.87,1.33-.21.55-.32,1.21-.33,1.99v.3c0,.09,0,.2.02.3,0,.35-.04.64-.12.88-.08.24-.18.42-.3.57-.12.14-.26.24-.4.3s-.3.09-.45.09h-18.51c-.34,0-.58-.08-.74-.23s-.23-.43-.23-.84v-10.47c0-.13-.07-.2-.2-.2h-1.88c-.13,0-.2.07-.2.2v11c0,.88.18,1.52.55,1.93.36.41.97.62,1.82.62h19.32c.19,0,.39-.01.61-.04.22-.03.42-.08.63-.15.2-.07.4-.18.59-.31.19-.13.35-.31.48-.53.36.42.82.72,1.36.9.54.18,1.15.27,1.82.27.62,0,1.19-.08,1.7-.24.51-.16.95-.42,1.32-.77s.65-.8.85-1.35c.2-.55.3-1.23.3-2.02s-.1-1.52-.31-2.1c-.21-.58-.5-1.04-.87-1.4Zm-1.53,5.31c-.31.38-.8.58-1.46.58s-1.13-.19-1.44-.57c-.31-.38-.47-1-.47-1.86,0-.8.15-1.4.47-1.82.31-.42.79-.63,1.44-.63,1.28,0,1.92.82,1.92,2.45,0,.85-.16,1.47-.47,1.85Z"></path>
        <path class="cls-1" d="m69.2,144.71h-2.05c-.15-.11-.29-.26-.43-.46-.14-.2-.21-.43-.21-.7,0-.28.09-.52.26-.72.18-.2.42-.29.73-.29.36,0,.69.15.97.47.03.03.05.04.08.04s.07-.03.12-.08l.53-.49c.05-.05.05-.12,0-.2-.18-.23-.41-.41-.71-.55-.3-.13-.63-.2-1.01-.2s-.72.06-.99.18-.49.28-.67.48c-.18.19-.3.41-.38.65s-.11.47-.11.7.03.44.09.65c.06.2.14.38.23.53h-.75c-.08,0-.12.05-.12.14v.73c0,.09.04.14.12.14h4.29c.08,0,.12-.05.12-.14v-.73c0-.09-.04-.14-.12-.14Z"></path>
        <path class="cls-1" d="m73.42,126.37h-1.88c-.14,0-.2.07-.2.2v10.47c0,.4-.08.68-.23.84-.15.15-.4.23-.74.23h-2.11v-8.69c0-.13-.07-.2-.2-.2h-1.88c-.13,0-.2.07-.2.2v8.69h-3.61c-.13,0-.2.07-.2.2v1.6c0,.13.07.2.2.2h8.89c.85,0,1.46-.21,1.82-.62s.55-1.05.55-1.93v-11c0-.13-.07-.2-.2-.2Z"></path>
        <path class="cls-1" d="m76.46,126.37h1.88c.11,0,.2.09.2.2v13.35c0,.11-.09.2-.2.2h-1.88c-.11,0-.2-.09-.2-.2v-13.35c0-.11.09-.2.2-.2Z"></path>
        <rect class="cls-1" x="99.5" y="141.82" width="2.35" height="2.14" rx=".2" ry=".2"></rect>
        <path class="cls-1" d="m112.16,127.56h1.7c.11,0,.2.09.2.2v1.74c0,.11-.09.2-.2.2h-1.7c-.11,0-.2-.09-.2-.2v-1.74c0-.11.09-.2.2-.2Z"></path>
        <path class="cls-1" d="m109.53,127.56h1.7c.11,0,.2.09.2.2v1.74c0,.11-.09.2-.2.2h-1.7c-.11,0-.2-.09-.2-.2v-1.74c0-.11.09-.2.2-.2Z"></path>
        <path class="cls-1" d="m118.44,127.56h1.7c.11,0,.2.09.2.2v1.74c0,.11-.09.2-.2.2h-1.7c-.11,0-.2-.09-.2-.2v-1.74c0-.11.09-.2.2-.2Z"></path>
        <path class="cls-1" d="m121.07,127.56h1.7c.11,0,.2.09.2.2v1.74c0,.11-.09.2-.2.2h-1.7c-.11,0-.2-.09-.2-.2v-1.74c0-.11.09-.2.2-.2Z"></path>
        <path class="cls-1" d="m164.64,132.37c-.37-.35-.81-.61-1.33-.77-.51-.16-1.07-.24-1.66-.24s-1.14.08-1.64.23c-.5.16-.94.4-1.31.75-.37.34-.66.79-.87,1.33-.21.55-.32,1.21-.33,1.99v.3c0,.09,0,.2.02.3,0,.35-.04.64-.12.88-.08.24-.18.42-.3.57-.12.14-.26.24-.4.3s-.3.09-.45.09h-1.13c-.51,0-.92-.11-1.23-.32-.3-.22-.46-.53-.46-.93v-4.93c0-.13-.07-.2-.2-.2h-1.88c-.14,0-.2.07-.2.2v4.21c0,.42-.01.76-.04,1.02-.03.26-.09.46-.19.61-.1.14-.25.24-.44.28-.19.05-.44.07-.75.07-.42,0-.76-.1-1.01-.29s-.38-.5-.38-.92v-3.38c0-.13-.07-.2-.2-.2h-1.88c-.13,0-.2.07-.2.2v2.59c0,.43-.01.78-.03,1.03-.02.26-.08.46-.17.61-.09.15-.24.25-.44.29-.2.05-.46.07-.8.07-.49,0-.84-.1-1.06-.3-.22-.2-.33-.52-.33-.95v-3.34c0-.13-.07-.2-.2-.2h-1.88c-.14,0-.2.07-.2.2v2.59c0,.36,0,.67-.01.92,0,.25-.04.45-.1.62-.06.16-.16.28-.28.35-.13.07-.31.11-.56.11h-16.54c-.51,0-.92-.11-1.23-.32-.3-.22-.46-.53-.46-.93v-4.93c0-.13-.07-.2-.2-.2h-1.74c-.08,0-.16.01-.23.04-.07.03-.11.08-.11.16v4.21c0,.36,0,.67-.02.92-.01.25-.05.45-.11.61-.06.15-.15.27-.28.34-.13.07-.31.11-.56.11h-1.32s-.03,0-.05,0c-.02,0-.03,0-.05,0h-2.88c.51-.35.92-.8,1.23-1.34.3-.55.46-1.15.46-1.81,0-1.09-.36-1.96-1.09-2.62-.73-.65-1.78-.98-3.16-.98s-2.43.33-3.16.98c-.73.65-1.09,1.53-1.09,2.62,0,.66.15,1.26.45,1.81.3.55.71.99,1.21,1.34h-5.53c-.51,0-.92-.11-1.23-.32-.3-.22-.46-.53-.46-.93v-4.93c0-.13-.07-.2-.2-.2h-1.88c-.13,0-.2.07-.2.2v4.29c0,.35,0,.65-.02.89-.01.24-.05.44-.11.59-.06.15-.16.26-.29.32-.13.07-.32.1-.55.1h-.97s-.03.01-.05.01c-.03,0-.05-.01-.08-.01h-.32c-.51,0-.92-.11-1.23-.32-.3-.22-.45-.53-.45-.93v-10.29c0-.13-.07-.2-.2-.2h-1.88c-.14,0-.2.07-.2.2v13.06c0,.92-.24,1.58-.71,1.99-.47.41-1.1.62-1.88.62-.31,0-.63-.04-.95-.13-.32-.09-.62-.24-.88-.45s-.48-.5-.65-.86c-.17-.36-.25-.8-.25-1.32,0-.61.1-1.16.29-1.67.2-.51.4-.95.62-1.32.03-.05.04-.1.03-.15,0-.05-.04-.08-.11-.11l-1.64-.65c-.15-.07-.25-.05-.3.04-.34.53-.62,1.15-.85,1.88-.23.73-.34,1.46-.34,2.18,0,.78.12,1.46.37,2.04.25.58.6,1.06,1.04,1.45.44.38.97.67,1.57.86.6.19,1.26.28,1.98.28s1.42-.09,2.02-.28c.61-.19,1.13-.47,1.57-.86.44-.38.78-.87,1.01-1.45s.35-1.25.35-2.02v-.22c.24.28.53.46.86.54.33.07.71.11,1.14.11.01,0,.02,0,.04,0,.02,0,.04,0,.06,0h1.6c.65,0,1.16-.07,1.53-.22.37-.15.65-.42.84-.81.23.43.54.71.93.84.34.11.75.17,1.2.18.03,0,.05.01.08.01h5.12c.39,0,.84-.02,1.35-.06.51-.04.98-.18,1.43-.42.39.24.8.38,1.24.42.43.04.89.06,1.38.06h2.81s.03,0,.05,0c.02,0,.03,0,.05,0h1.88c.65,0,1.17-.07,1.55-.22.38-.15.67-.42.86-.81.23.43.54.71.93.84.39.13.85.19,1.38.19h14.58s.02,0,.04,0c.04,0,.07,0,.1,0h2.19c.61,0,1.09-.08,1.45-.24.36-.16.63-.44.82-.83.35.71,1.01,1.07,1.96,1.07h.89c.61,0,1.09-.08,1.45-.23.36-.15.63-.43.82-.82.18.34.43.6.76.78s.73.27,1.21.27h.87c.61,0,1.09-.08,1.45-.23.36-.15.63-.42.82-.8.23.43.54.71.92.84.38.13.84.19,1.37.19h.71c.19,0,.39-.01.61-.04.22-.03.42-.08.63-.15.2-.07.4-.18.59-.31.19-.13.35-.31.48-.53.36.42.82.72,1.36.9.54.18,1.15.27,1.82.27.62,0,1.19-.08,1.7-.24.51-.16.95-.42,1.32-.77.36-.35.65-.8.85-1.35.2-.55.3-1.23.3-2.02s-.1-1.52-.31-2.1c-.21-.58-.5-1.04-.87-1.4Zm-51.67,4.42c-.38.42-.83.75-1.36.98-.54-.23-1-.56-1.38-.98-.38-.42-.57-.98-.57-1.67,0-.65.19-1.14.58-1.47.38-.33.84-.5,1.37-.5s.98.16,1.36.5c.38.33.57.82.57,1.47,0,.69-.19,1.24-.57,1.67Zm50.14.89c-.31.38-.8.58-1.46.58s-1.13-.19-1.44-.57c-.31-.38-.47-1-.47-1.86,0-.8.15-1.4.47-1.82.31-.42.79-.63,1.44-.63,1.28,0,1.92.82,1.92,2.45,0,.85-.16,1.47-.47,1.85Z"></path>
        <path class="cls-1" d="m197.78,127.56h1.94c.11,0,.2.09.2.2v1.74c0,.11-.09.2-.2.2h-1.95c-.11,0-.2-.09-.2-.2v-1.74c0-.11.09-.2.2-.2Z"></path>
        <path class="cls-1" d="m221.37,127.56h1.7c.11,0,.2.09.2.2v1.74c0,.11-.09.2-.2.2h-1.7c-.11,0-.2-.09-.2-.2v-1.74c0-.11.09-.2.2-.2Z"></path>
        <path class="cls-1" d="m221.86,131.73h-1.88c-.13,0-.2.07-.2.2v5.12c0,.4-.08.68-.23.84-.16.15-.4.23-.74.23h-1.66c-.51,0-.92-.11-1.21-.32-.3-.22-.45-.53-.47-.93,0-.08,0-.18.01-.29,0-.11.01-.24.01-.37,0-.73-.09-1.39-.27-1.99-.18-.6-.47-1.11-.87-1.53-.4-.42-.91-.74-1.54-.97-.63-.23-1.38-.34-2.26-.34-.82,0-1.62.11-2.39.33-.77.22-1.47.49-2.11.8v-.65c0-.13-.07-.2-.2-.2h-1.88c-.13,0-.2.07-.2.2v4.16c0,.28,0,.55-.02.81-.01.26-.05.48-.11.68-.06.2-.16.35-.29.46-.13.11-.33.16-.59.16h-1.18c-.51,0-.92-.11-1.23-.32-.3-.22-.46-.53-.46-.93v-4.93c0-.13-.07-.2-.2-.2h-1.88c-.13,0-.2.07-.2.2v4.29c0,.35,0,.65-.02.89-.01.24-.05.44-.11.59-.06.15-.16.26-.29.32-.13.07-.32.1-.55.1h-.97s-.03.01-.05.01c-.03,0-.05-.01-.08-.01h-12.15s0,0,0,0,0,0-.01,0h-2.55c-.13,0-.27-.01-.41-.03-.14-.02-.28-.04-.41-.05.24-.17.49-.38.74-.63.25-.24.47-.51.67-.81.2-.3.35-.62.48-.97s.18-.72.18-1.11c0-.59-.13-1.09-.39-1.5-.26-.4-.6-.73-1.02-.97-.42-.24-.89-.42-1.41-.53-.52-.11-1.04-.16-1.55-.16-.58,0-1.15.04-1.7.12-.55.08-1.04.19-1.47.33-.42.14-.77.3-1.03.48s-.39.35-.39.53v1.27c0,.11.01.21.04.3.03.09.11.19.24.28.28.2.56.41.83.62.27.21.52.44.76.71.24.26.44.56.63.9.18.34.33.73.43,1.19-.42.11-.85.23-1.29.37-.44.14-.83.34-1.19.59-.35.25-.64.56-.87.94-.23.38-.34.85-.34,1.42s.09.99.27,1.34c.18.36.45.64.8.86.35.22.78.37,1.29.45.51.09,1.09.13,1.75.13h1.68c.14,0,.2-.07.2-.2v-1.62c0-.13-.07-.2-.2-.2h-1.4c-.8,0-1.34-.06-1.64-.18-.3-.12-.45-.36-.45-.71,0-.28.09-.51.28-.68.19-.17.44-.31.74-.43.3-.12.64-.23,1.01-.32.37-.09.74-.22,1.12-.36.35.23.75.39,1.2.49.44.09.86.14,1.26.14h3.12s0,0,0,0c0,0,0,0,.01,0h12.15s.03,0,.04,0c.02,0,.04,0,.06,0h1.6c.65,0,1.16-.07,1.53-.22.37-.15.65-.42.84-.81.23.43.54.71.93.84.34.11.74.16,1.18.18.03,0,.06.01.09.01h1.68c.35,0,.66-.02.92-.06.26-.04.5-.13.72-.28.13.08.3.14.5.18.2.04.4.07.62.1.22.03.44.04.67.05.23,0,.45,0,.67,0h3.99c.89,0,1.61-.08,2.16-.23.55-.15.96-.5,1.25-1.04.22.51.54.85.98,1.02.44.17.95.25,1.53.25h2.21c.85,0,1.46-.21,1.82-.62s.55-1.05.55-1.93v-5.64c0-.13-.07-.2-.2-.2Zm-42.33,3.92c-.1.26-.24.5-.41.72-.18.22-.37.43-.59.62-.22.19-.43.35-.65.49-.19-.78-.5-1.49-.94-2.11-.44-.63-.97-1.14-1.59-1.53.13-.08.4-.17.8-.28.4-.11.87-.16,1.41-.16.63,0,1.15.11,1.54.32.39.22.59.6.59,1.15,0,.27-.05.53-.15.79Zm33.46,1.61c-.07.28-.2.48-.39.61-.2.13-.47.2-.83.22-.36.02-.83.03-1.41.03h-4.39c.03-.13.05-.28.06-.42.01-.15.02-.3.02-.47v-2.75c.57-.27,1.22-.52,1.94-.75.73-.23,1.47-.34,2.23-.34.57,0,1.03.06,1.4.18s.66.3.88.53.38.51.47.85c.09.34.13.72.13,1.15,0,.5-.03.89-.1,1.16Z"></path>
        <path class="cls-1" d="m218.74,127.56h1.7c.11,0,.2.09.2.2v1.74c0,.11-.09.2-.2.2h-1.7c-.11,0-.2-.09-.2-.2v-1.74c0-.11.09-.2.2-.2Z"></path>
        <path class="cls-1" d="m233.84,126.75h1.7c.11,0,.2.09.2.2v1.74c0,.11-.09.2-.2.2h-1.7c-.11,0-.2-.09-.2-.2v-1.74c0-.11.09-.2.2-.2Z"></path>
        <path class="cls-1" d="m231.21,126.75h1.7c.11,0,.2.09.2.2v1.74c0,.11-.09.2-.2.2h-1.7c-.11,0-.2-.09-.2-.2v-1.74c0-.11.09-.2.2-.2Z"></path>
        <path class="cls-1" d="m249.4,132.32c-.42-.26-.92-.44-1.52-.53-.59-.09-1.25-.14-1.96-.15l3.34-3.9c.05-.11.03-.2-.08-.28l-1.32-1.09c-.09-.05-.18-.03-.26.06l-4.37,5.14c-.05.07-.12.14-.2.22-.08.08-.12.17-.12.26v1.39c0,.13.07.2.2.2h3.26c.72,0,1.24.14,1.57.43s.5.74.5,1.34v1.09c0,.31-.02.57-.05.77-.03.2-.11.36-.22.49s-.28.21-.5.26c-.22.05-.51.08-.87.08h-7.45c-.05,0-.08.02-.13.02-.04,0-.07-.02-.11-.02h-.77c-.34,0-.58-.08-.74-.23-.16-.15-.23-.43-.23-.84v-6.55c0-.13-.07-.2-.2-.2h-1.86c-.14,0-.2.07-.2.2v.87h-2.02c-.51,0-1.01.07-1.48.2-.47.13-.9.36-1.27.68-.37.32-.67.74-.89,1.26-.22.53-.33,1.18-.33,1.96,0,.67.1,1.25.3,1.73.2.48.48.87.82,1.18.34.31.75.54,1.22.69.46.15.96.22,1.49.22.43,0,.84-.06,1.24-.18.39-.12.73-.3,1.01-.55.12.58.37.98.74,1.21.37.23.89.34,1.55.34h1.64s.08-.01.13-.02c.04,0,.07.02.11.02h8.38c.51,0,.96-.05,1.34-.16.38-.11.69-.3.93-.57.24-.27.42-.62.55-1.06.12-.44.18-.99.18-1.67v-1.21c0-.82-.12-1.48-.34-1.98-.23-.5-.55-.88-.97-1.14Zm-14.32,2.78c0,.72-.15,1.26-.47,1.63-.31.37-.79.56-1.44.56-.57,0-1.01-.15-1.34-.44-.32-.3-.49-.76-.49-1.38,0-.8.18-1.34.53-1.64.35-.3.82-.45,1.4-.45h1.8v1.72Z"></path>
        <path class="cls-1" d="m276.03,124.95h1.7c.11,0,.2.09.2.2v1.74c0,.11-.09.2-.2.2h-1.7c-.11,0-.2-.09-.2-.2v-1.74c0-.11.09-.2.2-.2Z"></path>
        <path class="cls-1" d="m282.95,131.73h-1.88c-.14,0-.2.07-.2.2v4.21c0,.43-.01.78-.04,1.03-.03.26-.09.45-.17.6-.09.14-.23.24-.41.28-.19.05-.45.07-.77.07-.43,0-.78-.1-1.03-.31-.26-.21-.38-.53-.38-.96v-3.32c0-.13-.07-.2-.2-.2h-1.88c-.13,0-.2.07-.2.2v3.05c0,.35-.02.63-.05.83-.03.2-.1.35-.2.45-.1.1-.24.17-.41.2-.18.03-.41.05-.71.05-.97,0-1.46-.42-1.46-1.25v-3.34c0-.13-.07-.2-.2-.2h-1.88c-.14,0-.2.07-.2.2v3.05c0,.58-.05.98-.16,1.2-.11.22-.37.33-.79.33h-11.68c-.51,0-.92-.11-1.23-.32-.3-.22-.46-.53-.46-.93v-4.93c0-.13-.07-.2-.2-.2h-1.88c-.13,0-.2.07-.2.2v7.22c0,.49-.01.91-.03,1.28-.02.37-.08.69-.18.95-.1.26-.26.46-.48.6-.22.13-.52.2-.91.2h-.44c-.14,0-.2.07-.2.2v1.62c0,.13.07.2.2.2h.75c.67,0,1.24-.09,1.7-.27s.83-.45,1.1-.82c.28-.36.48-.82.6-1.37.12-.55.18-1.18.18-1.91v-.38c.23.28.51.47.84.55.33.08.72.12,1.18.12h12.03c.62,0,1.11-.08,1.47-.24.36-.16.63-.44.82-.83.35.71,1.01,1.07,1.96,1.07h.89c.61,0,1.09-.08,1.45-.23.36-.15.63-.43.82-.82.18.34.43.6.76.78s.73.27,1.21.27h.87c.92,0,1.57-.19,1.95-.58.38-.38.58-1.04.58-1.97v-5.64c0-.13-.07-.2-.2-.2Z"></path>
        <path class="cls-1" d="m277.36,127.56h1.7c.11,0,.2.09.2.2v1.74c0,.11-.09.2-.2.2h-1.7c-.11,0-.2-.09-.2-.2v-1.74c0-.11.09-.2.2-.2Z"></path>
        <path class="cls-1" d="m274.73,127.56h1.7c.11,0,.2.09.2.2v1.74c0,.11-.09.2-.2.2h-1.7c-.11,0-.2-.09-.2-.2v-1.74c0-.11.09-.2.2-.2Z"></path>
      </g>
      <rect class="cls-1" x=".05" y="176.46" width="283.41" height="4.96"></rect>
      <g>
        <path class="cls-1" d="m122.53,74.39c0-.25.08-.46.24-.62l11.39-14.17c.63-.79,1.14-1.58,1.52-2.37s.57-1.64.57-2.56c0-1.2-.37-2.21-1.11-3.03-.74-.82-1.8-1.23-3.16-1.23s-2.31.36-3.04,1.09c-.73.73-1.17,1.71-1.33,2.94-.06.32-.24.44-.52.38l-4.18-.85c-.32-.06-.44-.25-.38-.57.09-.95.36-1.88.81-2.8.44-.92,1.06-1.75,1.85-2.49.79-.74,1.76-1.33,2.92-1.78s2.49-.66,4.01-.66,2.86.24,4.04.71c1.17.47,2.16,1.11,2.97,1.92.8.81,1.42,1.75,1.85,2.84.43,1.09.64,2.27.64,3.53,0,1.45-.27,2.79-.81,4-.54,1.22-1.28,2.39-2.23,3.53l-9.4,11.37v.09h11.96c.32,0,.48.16.48.47v3.79c0,.32-.16.47-.48.47h-18.13c-.32,0-.47-.16-.47-.47v-3.55Z"></path>
        <path class="cls-1" d="m149.01,72.63c-.1-.31-.19-.69-.29-1.11-.09-.43-.16-1.01-.21-1.75s-.09-1.71-.12-2.89c-.03-1.18-.05-2.71-.05-4.57s.01-3.39.05-4.57c.03-1.18.07-2.15.12-2.89.05-.74.12-1.32.21-1.73.1-.41.19-.79.29-1.14.63-2.02,1.72-3.58,3.25-4.67,1.53-1.09,3.5-1.64,5.91-1.64s4.37.55,5.91,1.64c1.54,1.09,2.64,2.65,3.3,4.67.1.35.19.73.29,1.14.09.41.17.99.21,1.73.05.74.09,1.71.12,2.89.03,1.19.05,2.71.05,4.57s-.02,3.39-.05,4.57c-.03,1.19-.07,2.15-.12,2.89-.04.74-.12,1.33-.21,1.75-.1.43-.19.8-.29,1.11-.66,2.02-1.76,3.58-3.3,4.67-1.53,1.09-3.5,1.63-5.91,1.63s-4.37-.54-5.91-1.63c-1.53-1.09-2.62-2.65-3.25-4.67Zm5.22-.99c.6,1.71,1.91,2.56,3.94,2.56s3.35-.85,3.99-2.56c.1-.25.17-.54.21-.85.05-.32.09-.81.12-1.47.03-.66.06-1.55.07-2.65.02-1.11.03-2.56.03-4.36s0-3.25-.03-4.36c-.01-1.11-.04-1.99-.07-2.65-.03-.66-.07-1.15-.12-1.47-.04-.32-.12-.6-.21-.85-.63-1.71-1.96-2.56-3.99-2.56s-3.34.85-3.94,2.56c-.09.25-.17.54-.21.85-.05.32-.09.8-.12,1.47-.03.66-.06,1.55-.07,2.65-.02,1.11-.03,2.56-.03,4.36s0,3.25.03,4.36c.01,1.11.04,1.99.07,2.65.03.66.07,1.15.12,1.47.04.32.12.6.21.85Z"></path>
        <path class="cls-1" d="m174.65,74.39c0-.25.08-.46.24-.62l11.39-14.17c.63-.79,1.14-1.58,1.52-2.37s.57-1.64.57-2.56c0-1.2-.37-2.21-1.11-3.03-.74-.82-1.8-1.23-3.16-1.23s-2.31.36-3.04,1.09-1.17,1.71-1.33,2.94c-.06.32-.24.44-.52.38l-4.18-.85c-.32-.06-.44-.25-.38-.57.09-.95.36-1.88.81-2.8.44-.92,1.06-1.75,1.85-2.49.79-.74,1.76-1.33,2.92-1.78s2.49-.66,4.01-.66,2.86.24,4.04.71c1.17.47,2.16,1.11,2.97,1.92.8.81,1.42,1.75,1.85,2.84.43,1.09.64,2.27.64,3.53,0,1.45-.27,2.79-.81,4-.54,1.22-1.28,2.39-2.23,3.53l-9.4,11.37v.09h11.96c.32,0,.48.16.48.47v3.79c0,.32-.16.47-.48.47h-18.13c-.32,0-.47-.16-.47-.47v-3.55Z"></path>
        <path class="cls-1" d="m200.18,72.02c-.06-.32.06-.52.38-.62l4.13-.95c.28-.06.47.05.57.33.35.95.92,1.75,1.71,2.42.79.66,1.85,1,3.18,1,1.52,0,2.69-.45,3.51-1.35.82-.9,1.24-2.04,1.24-3.44,0-1.64-.48-2.93-1.43-3.86-.95-.93-2.23-1.4-3.84-1.4h-1.38c-.32,0-.48-.16-.48-.47v-3.74c0-.32.16-.47.48-.47h1.28c1.43,0,2.57-.43,3.42-1.28.86-.85,1.28-1.99,1.28-3.41,0-1.3-.38-2.35-1.14-3.15-.76-.8-1.82-1.21-3.18-1.21-1.2,0-2.15.3-2.85.9-.7.6-1.18,1.41-1.47,2.42-.09.28-.28.4-.57.33l-4.04-.95c-.32-.06-.44-.25-.38-.57.19-.98.55-1.89,1.07-2.73.52-.84,1.19-1.56,2-2.18.8-.62,1.75-1.1,2.85-1.44,1.09-.35,2.29-.52,3.58-.52,1.52,0,2.86.22,4.04.66,1.17.44,2.16,1.06,2.97,1.85.8.79,1.42,1.73,1.85,2.82.43,1.09.64,2.28.64,3.58s-.3,2.62-.9,3.77c-.6,1.15-1.5,2.12-2.71,2.91v.09c.47.19.96.51,1.47.97.51.46.96,1.02,1.38,1.68.41.66.75,1.43,1.02,2.3.27.87.4,1.83.4,2.87,0,1.49-.25,2.83-.76,4.03s-1.21,2.23-2.11,3.08c-.9.85-1.97,1.51-3.2,1.97-1.24.46-2.58.69-4.04.69-2.53,0-4.7-.6-6.5-1.8-1.8-1.2-2.96-2.91-3.46-5.12Z"></path>
      </g>
      <g>
        <path class="cls-1" d="m267,100.4c5.03-5.02,9.07-10.98,12.01-17.72,2.95-6.77,4.45-14.11,4.45-21.82s-1.5-15.05-4.45-21.82c-2.95-6.74-6.99-12.7-12.01-17.71-5.03-5.02-10.99-9.05-17.74-11.99-6.78-2.95-14.13-4.45-21.85-4.45s-14.93,1.5-21.71,4.45c-6.75,2.94-12.72,6.97-17.74,11.99-3.6,3.6-6.69,7.69-9.24,12.19h5.88c2.01-3.14,4.31-6.03,6.92-8.63,4.58-4.57,10.03-8.25,16.19-10.94,6.14-2.67,12.76-4.03,19.69-4.03,7.02,0,13.7,1.35,19.83,4.03,6.17,2.69,11.61,6.37,16.19,10.94,4.58,4.57,8.26,10.01,10.95,16.17,2.68,6.13,4.03,12.79,4.03,19.81s-1.36,13.68-4.03,19.81c-2.69,6.16-6.37,11.6-10.95,16.17-4.58,4.57-10.02,8.22-16.18,10.86-2.42,1.04-5,1.89-7.65,2.52l-.59.18v4.87h44.41v-5.04h-29.83c5.01-2.64,9.5-5.94,13.4-9.83Z"></path>
        <path class="cls-1" d="m207.71,107.7c-6.16-2.63-11.6-6.29-16.18-10.86-1.91-1.91-3.65-3.97-5.24-6.17h-6.08c2.24,3.54,4.83,6.8,7.76,9.73,3.9,3.9,8.4,7.19,13.4,9.83h-59.45c5-2.64,9.5-5.94,13.4-9.83,2.93-2.93,5.52-6.19,7.76-9.73h-6.08c-1.59,2.2-3.33,4.26-5.24,6.17-4.58,4.57-10.02,8.22-16.18,10.86-2.42,1.03-4.99,1.88-7.65,2.53l-.59.18v4.87h88.61v-4.9l-.59-.14c-2.65-.64-5.22-1.49-7.64-2.53Z"></path>
        <path class="cls-1" d="m79.85,24.89c4.58-4.57,10.03-8.25,16.19-10.94,6.14-2.67,12.76-4.03,19.69-4.03s13.7,1.35,19.84,4.03c6.17,2.69,11.61,6.37,16.19,10.94,2.61,2.6,4.91,5.49,6.92,8.63h5.88c-2.55-4.51-5.64-8.6-9.24-12.19-5.03-5.02-10.99-9.05-17.74-11.99-6.78-2.95-14.13-4.45-21.85-4.45s-14.93,1.5-21.71,4.45c-6.75,2.94-12.72,6.97-17.74,11.99-5.03,5.02-9.07,10.98-12.01,17.71-2.95,6.76-4.45,14.1-4.45,21.82s1.5,15.06,4.45,21.82c1.75,4.02,3.9,7.76,6.41,11.19h-14.94V0S0,45.95,0,45.95l15.32,15.3,9.62-9.6v42.23s-15.94,0-15.94,0v16.36H1.25v5.04h12.8v-16.36s15.94,0,15.94,0v-59.42s-14.66,14.64-14.66,14.64l-8.07-8.06L50.7,11.64v87.27h15.94v16.36h37.61v-4.9l-.59-.14c-2.65-.64-5.22-1.49-7.64-2.53-6.16-2.63-11.6-6.29-16.18-10.86-4.58-4.57-8.27-10.01-10.95-16.17-2.68-6.12-4.03-12.78-4.03-19.81s1.36-13.68,4.03-19.81c2.69-6.16,6.37-11.6,10.95-16.17Zm-8.16,70.32c1.42,1.83,2.95,3.56,4.59,5.19,3.9,3.9,8.4,7.19,13.4,9.83h-17.99v-15.03Z"></path>
      </g>
    </g>
  </g>
</svg>
